<?xml version="1.0" encoding="utf-8"?>
<!-- Generator: Adobe Illustrator 27.9.6, SVG Export Plug-In . SVG Version: 9.03 Build 54986)  -->
<svg version="1.1" id="Layer_1" xmlns="http://www.w3.org/2000/svg" xmlns:xlink="http://www.w3.org/1999/xlink" x="0px" y="0px"
	 viewBox="0 0 500 500" style="enable-background:new 0 0 500 500;" xml:space="preserve">
<style type="text/css">
	.st0{fill:#FFFFFF;}
	.st1{fill:#CCD0D6;}
</style>
<circle class="st0" cx="249.7" cy="249.9" r="249.3"/>
<path class="st1" d="M393.8,46.6c-1.6-1.2-3.3-2.3-4.9-3.4c-18.2-12.3-38.1-22.3-59.3-29.4c-3.9-1.3-7.8-2.5-11.7-3.6
	c-5.9-1.7-11.9-3.1-18-4.4c-16.2-3.3-33-5.1-50.2-5.1c-2.1,0-4.3,0-6.4,0.1c-17.1,0.4-33.7,2.6-49.8,6.3c-2,0.5-4,1-6,1.5
	c-8,2-15.8,4.5-23.4,7.3c-1.9,0.7-3.8,1.4-5.7,2.2c-5.7,2.2-11.2,4.7-16.6,7.3c-3.6,1.7-7.2,3.6-10.7,5.5
	C53.5,72.9,0.8,155.1,0.8,249.6c0,0,0,0,0,0.1c0,2.2,0,4.4,0.1,6.6c0,0.7,0.1,1.5,0.1,2.2c0.1,1.5,0.1,3,0.2,4.4
	c0,0.9,0.1,1.7,0.2,2.6c0.1,1.3,0.2,2.7,0.3,4c0.1,0.9,0.2,1.8,0.2,2.7c0.1,1.3,0.2,2.6,0.4,3.8c0.1,0.9,0.2,1.8,0.3,2.7
	c0.1,1.3,0.3,2.5,0.5,3.8c0.1,0.9,0.3,1.8,0.4,2.7c0.2,1.2,0.4,2.5,0.6,3.7c0.1,0.9,0.3,1.8,0.4,2.7c0.2,1.3,0.4,2.5,0.7,3.8
	c0.2,0.9,0.3,1.7,0.5,2.6c0.3,1.3,0.5,2.5,0.8,3.8c0.2,0.8,0.4,1.7,0.5,2.5c0.3,1.3,0.6,2.6,0.9,3.9c0.2,0.8,0.4,1.6,0.6,2.3
	c0.3,1.4,0.7,2.7,1.1,4.1c0.2,0.7,0.4,1.4,0.6,2.1c0.4,1.5,0.9,3,1.3,4.4c0.2,0.6,0.3,1.1,0.5,1.7c0.5,1.7,1.1,3.5,1.7,5.2
	c0.1,0.3,0.2,0.5,0.3,0.8c2.1,6.2,4.4,12.2,6.9,18.2c0,0.1,0.1,0.2,0.1,0.2c0.8,1.9,1.6,3.7,2.5,5.6c0.1,0.3,0.2,0.5,0.4,0.8
	c0.8,1.7,1.6,3.3,2.4,5c0.2,0.3,0.3,0.6,0.5,1c0.8,1.6,1.6,3.2,2.4,4.7c0.2,0.4,0.4,0.7,0.6,1.1c0.8,1.5,1.6,3.1,2.5,4.6
	c0.2,0.3,0.4,0.7,0.6,1c0.9,1.5,1.7,3,2.6,4.5c0.2,0.3,0.4,0.6,0.6,0.9c0.9,1.5,1.8,3.1,2.8,4.6c0.2,0.3,0.3,0.5,0.5,0.8
	c1,1.6,2,3.2,3,4.7c0.1,0.2,0.2,0.4,0.4,0.6c1.1,1.7,2.2,3.3,3.4,5c0.1,0.1,0.1,0.1,0.2,0.2c11.1,15.8,23.9,30.2,38.3,43
	c0,0,0,0,0,0v0c44,39.3,102,63.1,165.6,63.1c64.2,0,122.6-24.3,166.8-64.1v0c0,0,0,0,0,0c6.3-5.7,12.3-11.7,18-18
	c0,0,0.1-0.1,0.1-0.1c1.3-1.5,2.7-3,4-4.5c0.2-0.2,0.4-0.5,0.6-0.7c1.1-1.3,2.3-2.7,3.4-4.1c0.3-0.3,0.5-0.7,0.8-1
	c1-1.3,2-2.5,3-3.8c0.3-0.4,0.6-0.8,0.9-1.2c0.9-1.2,1.9-2.5,2.8-3.7c0.3-0.5,0.7-0.9,1-1.4c0.9-1.2,1.8-2.4,2.6-3.7
	c0.3-0.5,0.7-1,1-1.5c0.8-1.2,1.7-2.4,2.5-3.7c0.3-0.5,0.7-1,1-1.6c0.8-1.2,1.6-2.5,2.4-3.7c0.3-0.5,0.7-1.1,1-1.6
	c0.8-1.3,1.5-2.5,2.3-3.8c0.3-0.5,0.6-1.1,0.9-1.6c0.8-1.3,1.5-2.6,2.2-3.9c0.3-0.5,0.6-1,0.9-1.6c0.7-1.4,1.5-2.7,2.2-4.1
	c0.3-0.5,0.5-1,0.8-1.4c0.8-1.5,1.5-3,2.2-4.5c0.2-0.4,0.4-0.8,0.6-1.1c0.9-1.8,1.7-3.6,2.5-5.3c0.1-0.1,0.1-0.2,0.2-0.3
	c1.8-3.9,3.4-7.8,5-11.8c0.1-0.2,0.2-0.5,0.3-0.7c0.7-1.7,1.3-3.4,1.9-5.1c0.2-0.6,0.4-1.1,0.6-1.7c0.5-1.4,1-2.8,1.5-4.3
	c0.2-0.7,0.5-1.4,0.7-2.1c0.4-1.3,0.8-2.6,1.2-3.9c0.2-0.8,0.5-1.6,0.7-2.3c0.4-1.2,0.7-2.5,1.1-3.7c0.2-0.8,0.5-1.7,0.7-2.5
	c0.3-1.2,0.6-2.4,1-3.7c0.2-0.9,0.4-1.7,0.6-2.6c0.3-1.2,0.6-2.4,0.8-3.6c0.2-0.9,0.4-1.8,0.6-2.7c0.3-1.2,0.5-2.4,0.7-3.6
	c0.2-0.9,0.4-1.8,0.5-2.7c0.2-1.2,0.4-2.4,0.6-3.6c0.2-0.9,0.3-1.9,0.5-2.8c0.2-1.2,0.4-2.4,0.5-3.6c0.1-0.9,0.3-1.9,0.4-2.8
	c0.2-1.2,0.3-2.4,0.4-3.7c0.1-0.9,0.2-1.9,0.3-2.8c0.1-1.3,0.2-2.5,0.4-3.8c0.1-0.9,0.2-1.8,0.2-2.7c0.1-1.3,0.2-2.6,0.3-4
	c0.1-0.9,0.1-1.7,0.2-2.6c0.1-1.5,0.1-2.9,0.2-4.4c0-0.7,0.1-1.5,0.1-2.2c0.1-2.2,0.1-4.4,0.1-6.6c0,0,0-0.1,0-0.1
	C498.6,165.9,457.2,91.8,393.8,46.6z"/>
<ellipse transform="matrix(0.7071 -0.7071 0.7071 0.7071 -66.5066 234.7667)" class="st0" cx="250.1" cy="197.7" rx="82.5" ry="82.5"/>
<path class="st0" d="M394.2,393.9c-38.5,38.5-89.6,59.7-144.1,59.7c-54.4,0-105.5-21.1-143.9-59.5c27.9-56.7,82.2-95.2,144.6-95.2
	c62.1,0,116.1,38.1,144.1,94.3C394.7,393.4,394.5,393.6,394.2,393.9z"/>
</svg>
